<svg xmlns="http://www.w3.org/2000/svg" width="511" height="511"><path d="m241.87 51.354 4.42-.109c26.424.174 53.165 10.84 71.81 29.723 18.205 18.435 29.989 42.77 32.297 68.67.477 5.361.399 10.779.406 16.156l-.015 19.7-37.068-.058c-.68-.026-.464-.332-.52-.954-.445-4.94-.026-10.148.017-15.119.056-6.565.23-13.277-.439-19.817-1.524-14.903-8.032-29.497-18.322-40.416-11.896-12.623-28.314-20.799-45.728-21.345-7.73 0-15.332.707-22.775 2.889-11.08 3.247-20.728 9.68-28.987 17.598-10.455 10.024-17.204 24.227-18.968 38.537-1.564 12.697-.568 25.889-.822 38.674l-37.306.022-.17-3.122c-.316-5.13.03-10.313.048-15.453.022-6.488-.171-13.112.458-19.574 2.188-22.462 11.921-44.733 26.981-61.587 18.658-20.88 46.929-32.827 74.683-34.415Zm122.544 228.755c5.62-.314 11.763-.282 17.324.599 12.926 2.048 24.854 8.184 34.639 16.786 14.56 12.801 23.566 31.832 24.774 51.13 1.214 19.382-5.788 36.98-18.579 51.335-12.26 13.76-30.602 23.066-49.091 24.068-5.977.148-12.129.003-18.027-1.02-12.159-2.109-24.6-8.143-33.793-16.382-5.008-4.488-9.609-9.396-13.35-15.008-7.306-10.958-11.473-23.856-12.179-36.972-.265-4.916-.198-9.79.58-14.661 2.351-14.745 9.907-27.855 19.846-38.786 3.279-3.608 7.488-6.865 11.567-9.504 11.133-7.203 23.083-10.91 36.29-11.585Zm3.576 34.223c-1.607.408-3.201.924-4.112 2.43-1.148 1.9-.732 5.932-.745 8.168l-.027 12.633c.017 2.559.195 5.13-.052 7.68-4.257.417-8.64.219-12.916.243-2.139.013-4.533-.121-6.617.403-.911.23-2.015.787-2.646 1.506-.757.863-1.167 2.224-1.029 3.363l.104.617.048.355c.119.852.599 2.653 1.348 3.152.814.542 2.03 1.112 2.988 1.29 1.996.374 4.295.195 6.33.192 4.16-.006 8.333-.12 12.478.268l.084 17.177c-.004 2.97-.341 6.401.13 9.306.178 1.09.597 2.16.998 3.187 1.459 1.265 2.504 1.935 4.478 2.232 1.989-.482 3.29-1.056 4.474-2.856.71-1.08.925-2.555 1.083-3.82.502-4.02.091-8.299.057-12.358l-.01-12.958 11.005.02c3.143.002 6.46.21 9.489-.748 1.49-1.744 2.858-3.47 2.692-5.912-.048-.732-.455-1.885-1.005-2.39-.86-.786-2.255-1.286-3.367-1.52-3.536-.743-7.257-.52-10.856-.513-2.608.004-5.352-.147-7.944.09l.025-16.986c.007-2.89.32-6.12-.158-8.957-.242-1.437-.767-3.208-1.838-4.238-1.137-1.093-3.024-1.103-4.49-1.056Z"/><path d="m112.545 197.36 19.674.01 38.867.04 117.467.097 61.735.057 18.689.009c3.995.004 8.099-.18 12.066.298 5.479.66 10.963 3.283 14.949 7.083 3.263 3.11 5.157 7.352 6.157 11.688 1.627 7.055 1.099 14.753 1.09 21.952l-.099 36.801c-5.691-2.274-10.994-4.32-17.007-5.665-6.95-1.554-14.371-1.842-21.46-1.448-2.933.163-5.924.273-8.832.69-12.786 1.827-24.292 6.557-35.116 13.488-18.283 11.707-29.732 31.783-34.287 52.603-2.236 8.641-2.712 18.44-1.558 27.29 1.887 14.482 7.585 28.473 16.315 40.195 2.048 2.75 4.008 5.442 6.775 7.534l.301.225c-3.66.971-7.922.347-11.699.344l-20.364-.008-87.397.003-54.687.008-10.777.053c-3.328.108-6.653.413-9.986.218-4.155-.243-8.607-1.439-12.221-3.507l-3.734-2.308c-5.932-4.386-8.463-11.281-9.468-18.355-.745-5.24-.675-10.545-.68-15.825l-.006-18.536-.002-62.358-.004-46.75v-13.528c-.001-3.03-.145-6.148.257-9.156.757-5.652 3.183-10.221 6.669-14.685 3.614-4.627 9.833-7.615 15.618-8.288l2.755-.268Zm125.241 60.226c-2.548.468-5.167.944-7.59 1.878-4.89 1.886-9.806 5.803-12.791 10.124-3.675 5.32-5.028 11.662-3.851 18.03 1.116 6.04 4.09 12.297 9.308 15.81 1.215.818 3.17 1.76 4.072 2.863l-4.93 26.209c-.958 4.751-2.505 9.651-2.694 14.5-.045 1.174.268 2.85.88 3.886.985 1.67 4.599 2.574 6.426 2.779l15.009.117c4.764.008 13.918 1.02 17.443-2.376 1.651-1.592 2.037-3.276 2.024-5.504-.027-4.659-1.606-9.141-2.58-13.652l-2.81-14.164c-.83-4.15-1.795-8.336-2.33-12.534 2.34-1.669 4.922-3.362 6.951-5.403 2.846-2.863 4.795-6.9 5.512-10.855 1.318-7.272-.261-15.536-4.592-21.601-3.966-5.556-9.311-8.974-16.06-10.079-2.385-.39-4.99-.152-7.397-.028Z"/></svg>